<?xml version="1.0" encoding="utf-8"?>
<!-- Generator: Adobe Illustrator 16.0.0, SVG Export Plug-In . SVG Version: 6.00 Build 0)  -->
<!DOCTYPE svg PUBLIC "-//W3C//DTD SVG 1.1//EN" "http://www.w3.org/Graphics/SVG/1.1/DTD/svg11.dtd">
<svg version="1.1" xmlns="http://www.w3.org/2000/svg" xmlns:xlink="http://www.w3.org/1999/xlink" x="0px" y="0px"
	 width="993.099px" height="887.219px" viewBox="0 0 993.099 887.219" enable-background="new 0 0 993.099 887.219"
	 xml:space="preserve">
<g id="Guides_For_Artboard">
</g>
<g id="Layer_1">
	<g>
		<path fill="#FFFFFF" d="M345.376,584.147c4.741,0,9.271,2.074,12.852,5.512c0.422,0.475,0.474,1.186,0.053,1.66l-3.266,3.854
			c-0.421,0.475-0.896,0.475-1.37,0c-2.265-2.252-5.057-3.438-7.954-3.438c-6.584,0-11.799,6.342-11.799,13.752
			c0,7.352,5.215,13.576,11.852,13.576c2.95,0,5.215-1.008,6.268-1.482v-5.039h-4.214c-0.579,0-1-0.475-1-1.066v-4.684
			c0-0.652,0.421-1.127,1-1.127h10.113c0.527,0,0.948,0.533,0.948,1.127v15.176c0,0.475-0.21,0.771-0.421,0.949
			c0,0-5.425,3.852-13.063,3.852c-10.482,0-18.91-9.365-18.91-21.221C326.467,593.69,334.895,584.147,345.376,584.147z"/>
		<path fill="#FFFFFF" d="M366.599,585.866c0-0.594,0.474-1.127,1-1.127h4.899c0.579,0,1,0.533,1,1.127v15.709h17.171v-15.709
			c0-0.594,0.422-1.127,1.001-1.127h4.846c0.526,0,1,0.533,1,1.127v39.244c0,0.592-0.474,1.125-1,1.125h-4.846
			c-0.579,0-1.001-0.533-1.001-1.125v-16.361h-17.171v16.361c0,0.592-0.421,1.125-1,1.125h-4.899c-0.527,0-1-0.533-1-1.125V585.866z
			"/>
		<path fill="#FFFFFF" d="M402.305,624.694l16.381-39.895c0.158-0.357,0.421-0.652,0.896-0.652h0.527
			c0.527,0,0.737,0.295,0.896,0.652l16.223,39.895c0.316,0.771-0.105,1.541-0.896,1.541h-4.583c-0.79,0-1.159-0.355-1.527-1.186
			l-2.581-6.402h-15.75l-2.581,6.402c-0.21,0.594-0.685,1.186-1.527,1.186h-4.583C402.411,626.235,401.989,625.465,402.305,624.694z
			 M425.06,612.067l-5.267-13.041h-0.158l-5.162,13.041H425.06z"/>
		<path fill="#FFFFFF" d="M442.016,585.866c0-0.594,0.421-1.127,1-1.127h15.064c6.321,0,11.483,5.691,11.483,12.746
			c0,5.453-3.213,9.898-7.795,11.975l7.216,15.057c0.369,0.771,0,1.719-0.896,1.719h-5.531c-0.474,0-0.737-0.297-0.843-0.533
			l-7.006-15.709h-5.847v15.117c0,0.592-0.474,1.125-1,1.125h-4.846c-0.579,0-1-0.533-1-1.125V585.866z M457.502,603.649
			c2.792,0,5.215-2.727,5.215-6.047c0-3.141-2.423-5.75-5.215-5.75h-8.586v11.797H457.502z"/>
		<path fill="#FFFFFF" d="M477.091,585.866c0-0.594,0.421-1.127,1-1.127h12.378c6.479,0,11.799,5.928,11.799,13.102
			c0,7.35-5.32,13.338-11.746,13.338h-6.584v13.932c0,0.592-0.475,1.125-1.001,1.125h-4.846c-0.579,0-1-0.533-1-1.125V585.866z
			 M490.048,603.946c2.95,0,5.426-2.668,5.426-6.164c0-3.262-2.476-5.752-5.426-5.752h-6.109v11.916H490.048z"/>
		<path fill="#FFFFFF" d="M508.269,585.866c0-0.594,0.475-1.127,1.001-1.127h4.898c0.58,0,1.001,0.533,1.001,1.127v15.709h17.172
			v-15.709c0-0.594,0.421-1.127,1.001-1.127h4.846c0.526,0,1.001,0.533,1.001,1.127v39.244c0,0.592-0.475,1.125-1.001,1.125h-4.846
			c-0.58,0-1.001-0.533-1.001-1.125v-16.361h-17.172v16.361c0,0.592-0.421,1.125-1.001,1.125h-4.898
			c-0.526,0-1.001-0.533-1.001-1.125V585.866z"/>
		<path fill="#FFFFFF" d="M565.045,584.147c10.534,0,18.962,9.543,18.962,21.4c0,11.855-8.428,21.281-18.962,21.281
			s-18.91-9.426-18.91-21.281C546.135,593.69,554.511,584.147,565.045,584.147z M565.045,619.122
			c6.637,0,12.115-6.105,12.115-13.574c0-7.471-5.479-13.695-12.115-13.695s-12.062,6.225-12.062,13.695
			C552.982,613.016,558.408,619.122,565.045,619.122z"/>
		<path fill="#FFFFFF" d="M607.229,584.147c5.32,0,9.165,1.896,12.747,5.512c0.474,0.475,0.474,1.186,0.053,1.66l-3.213,3.734
			c-0.369,0.475-0.896,0.475-1.317,0c-2.212-2.193-5.162-3.496-8.111-3.496c-6.742,0-11.746,6.342-11.746,13.812
			c0,7.408,5.057,13.693,11.799,13.693c3.16,0,5.847-1.363,8.059-3.379c0.422-0.416,1.001-0.355,1.317,0l3.266,3.793
			c0.421,0.416,0.315,1.186-0.053,1.602c-3.582,3.912-8.112,5.75-12.8,5.75c-10.535,0-19.016-9.426-19.016-21.281
			C588.214,593.69,596.694,584.147,607.229,584.147z"/>
		<path fill="#FFFFFF" d="M626.924,585.866c0-0.594,0.475-1.127,1.001-1.127h4.898c0.58,0,1.001,0.533,1.001,1.127v15.709h17.172
			v-15.709c0-0.594,0.421-1.127,1.001-1.127h4.846c0.526,0,1.001,0.533,1.001,1.127v39.244c0,0.592-0.475,1.125-1.001,1.125h-4.846
			c-0.58,0-1.001-0.533-1.001-1.125v-16.361h-17.172v16.361c0,0.592-0.421,1.125-1.001,1.125h-4.898
			c-0.526,0-1.001-0.533-1.001-1.125V585.866z"/>
		<path fill="#FFFFFF" d="M665.889,621.375c1.254,0,2.312,1.191,2.312,2.602c0,1.412-1.058,2.572-2.312,2.572
			c-1.253,0-2.283-1.16-2.283-2.572C663.605,622.567,664.636,621.375,665.889,621.375z"/>
		<path fill="#FFFFFF" d="M679.896,603.971c2.812,0,4.845,1.004,6.739,2.918c0.25,0.25,0.25,0.627,0.027,0.877l-1.698,1.975
			c-0.195,0.252-0.474,0.252-0.696,0c-1.17-1.16-2.729-1.85-4.289-1.85c-3.564,0-6.21,3.355-6.21,7.307
			c0,3.92,2.674,7.244,6.238,7.244c1.671,0,3.091-0.723,4.261-1.787c0.223-0.221,0.529-0.189,0.696,0l1.727,2.006
			c0.223,0.219,0.167,0.627-0.028,0.846c-1.894,2.07-4.288,3.043-6.767,3.043c-5.569,0-10.053-4.986-10.053-11.258
			S674.327,603.971,679.896,603.971z"/>
		<path fill="#FFFFFF" d="M698.835,603.971c5.569,0,10.025,5.049,10.025,11.32s-4.456,11.258-10.025,11.258
			s-9.997-4.986-9.997-11.258S693.266,603.971,698.835,603.971z M698.835,622.473c3.509,0,6.405-3.23,6.405-7.182
			s-2.896-7.242-6.405-7.242s-6.377,3.291-6.377,7.242S695.326,622.473,698.835,622.473z"/>
		<path fill="#FFFFFF" d="M714.544,604.442c0.027-0.25,0.194-0.471,0.501-0.471h0.445c0.223,0,0.39,0.127,0.474,0.314l6.126,14.801
			c0.056,0,0.056,0,0.084,0l6.126-14.801c0.084-0.188,0.223-0.314,0.474-0.314h0.445c0.307,0,0.474,0.221,0.502,0.471l3.285,21.072
			c0.084,0.439-0.139,0.721-0.501,0.721h-2.534c-0.25,0-0.474-0.25-0.529-0.471l-1.643-11.883c-0.028,0-0.084,0-0.084,0
			l-4.873,12.322c-0.056,0.189-0.223,0.346-0.474,0.346h-0.501c-0.25,0-0.39-0.156-0.474-0.346l-4.929-12.322c0,0-0.056,0-0.083,0
			l-1.615,11.883c-0.028,0.221-0.251,0.471-0.502,0.471h-2.506c-0.362,0-0.585-0.281-0.529-0.721L714.544,604.442z"/>
	</g>
	<g>
		<g>
			<g>
				<path fill="#FFFFFF" stroke="#FFFFFF" stroke-width="4" stroke-miterlimit="10" d="M513.712,553.403l-88.547-59.301
					l19.971-119.017l90.996,41.437L513.712,553.403z M432.817,490.801l75.746,50.729l19.795-120.855l-77.828-35.44L432.817,490.801z
					"/>
			</g>
			<g>
				<polygon fill="#FFFFFF" stroke="#FFFFFF" stroke-width="4" stroke-miterlimit="10" points="660.222,556.297 513.844,553.486 
					513.979,546.488 654.464,549.186 677.271,430.899 529.02,422.092 529.436,415.104 685.656,424.385 				"/>
			</g>
			<g>
				<polygon fill="#FFFFFF" stroke="#FFFFFF" stroke-width="4" stroke-miterlimit="10" points="680.558,429.866 675.513,425.012 
					712.217,386.86 580.971,376.98 534.616,419.663 529.874,414.512 578.465,369.772 727.572,380.996 				"/>
			</g>
			<g>
				<polygon fill="#FFFFFF" stroke="#FFFFFF" stroke-width="4" stroke-miterlimit="10" points="531.353,417.246 488.521,355.149 
					416.062,327.08 452.642,382.759 446.79,386.603 398.21,312.658 493.06,349.4 537.114,413.271 				"/>
			</g>
			<g>
				
					<rect x="507.913" y="376.013" transform="matrix(0.9961 0.0877 -0.0877 0.9961 35.3678 -45.8391)" fill="#FFFFFF" stroke="#FFFFFF" stroke-width="4" stroke-miterlimit="10" width="62.703" height="7"/>
			</g>
		</g>
		<path display="none" fill="#FFFFFF" d="M398.282,432.993c0,2.301-1.865,4.166-4.166,4.166h-80.08
			c-2.303,0-4.167-1.865-4.167-4.166l0,0c0-2.301,1.864-4.167,4.167-4.167h80.08C396.417,428.826,398.282,430.692,398.282,432.993
			L398.282,432.993z"/>
		<path display="none" fill="#FFFFFF" d="M400.137,382.223c0,2.301-1.865,4.166-4.167,4.166H266.852
			c-2.302,0-4.167-1.865-4.167-4.166l0,0c0-2.301,1.865-4.167,4.167-4.167H395.97C398.271,378.056,400.137,379.922,400.137,382.223
			L400.137,382.223z"/>
		<path display="none" fill="#FFFFFF" d="M399.583,489.412c0,2.301-1.864,4.167-4.166,4.167H237.276
			c-2.302,0-4.167-1.866-4.167-4.167l0,0c0-2.302,1.865-4.167,4.167-4.167h158.141C397.719,485.245,399.583,487.11,399.583,489.412
			L399.583,489.412z"/>
		<path display="none" fill="#FFFFFF" d="M368.979,329.092c0,2.301-1.865,4.166-4.167,4.166h-60.065
			c-2.301,0-4.166-1.865-4.166-4.166l0,0c0-2.301,1.865-4.167,4.166-4.167h60.065C367.114,324.925,368.979,326.792,368.979,329.092
			L368.979,329.092z"/>
		<g>
			<g>
				<defs>
					<path id="SVGID_1_" d="M592.3,127.07l35.494,156.333c0,0,14.366,34.432-8.411,73.907l58.719,3.713l77.49-204.854L592.3,127.07z
						"/>
				</defs>
				<clipPath id="SVGID_2_">
					<use xlink:href="#SVGID_1_"  overflow="visible"/>
				</clipPath>
				<path clip-path="url(#SVGID_2_)" fill="#FFFFFF" d="M688.929,291.714c-0.173-2.377-0.339-4.627-0.359-6.817
					c-0.074-7.467,3.2-17.64,4.355-20.989c0.076-0.097,0.137-0.207,0.183-0.324l0.2-0.523c0.039-0.071,0.072-0.147,0.102-0.228
					l1.016-2.66c0.933,0.131,1.87-0.39,2.22-1.307l2.045-5.355c0.338-0.89,0.022-1.901-0.767-2.44
					c-8.291-5.671-17.931-9.35-27.89-10.642c-0.949-0.122-1.856,0.423-2.195,1.311l-2.044,5.356c-0.352,0.919,0,1.93,0.78,2.453
					l-1.016,2.66c-0.028,0.078-0.055,0.157-0.073,0.237l-0.198,0.525c-0.044,0.116-0.07,0.241-0.08,0.361
					c-1.37,3.273-5.703,13.039-10.73,18.558c-1.477,1.62-3.099,3.187-4.809,4.848c-5.607,5.431-11.967,11.591-16.045,22.313
					l-27.54,72.175c-1.871,4.905,0.6,10.423,5.509,12.299l34.6,13.201c4.906,1.871,10.426-0.602,12.297-5.504l27.539-72.174
					C690.129,308.332,689.495,299.503,688.929,291.714z M651.233,289.789c-3.701,4.116-6.168,8.103-8.002,12.926l-26.827,70.309
					c-0.326,0.856-1.28,1.282-2.133,0.957c-0.852-0.324-1.279-1.28-0.952-2.135l26.826-70.307c1.983-5.22,4.647-9.525,8.631-13.957
					c0.61-0.681,1.653-0.733,2.331-0.125C651.788,288.07,651.842,289.111,651.233,289.789z M666.209,261.092
					c1.091-2.206,1.953-4.146,2.521-5.484l20.057,7.652c-0.473,1.376-1.122,3.399-1.776,5.768L666.209,261.092z M693.517,255.483
					l-23.139-8.829l0.728-1.901c8.215,1.293,16.151,4.32,23.137,8.829L693.517,255.483z"/>
			</g>
			<g>
				<defs>
					<path id="SVGID_3_" d="M716.166,283.322l-31.582,77.042l63.166,4.371l16.822,8.453c0,0,52.382-28.986,51.462-35.42
						c-0.919-6.432-17.46-36.759-17.46-36.759"/>
				</defs>
				<clipPath id="SVGID_4_">
					<use xlink:href="#SVGID_3_"  overflow="visible"/>
				</clipPath>
				<path clip-path="url(#SVGID_4_)" fill="#FFFFFF" d="M725.327,304.107l3.199,0.712c0,0,16.749-1.4,24.862,8.23l-7.602,6.984
					l6.576,7.159c-8.436,6.36-32.725,24.749-35,27.382c-2.756,3.189-25.658,21.602-25.658,21.602s-20.586,15.629-23.016,19.174
					c-2.431,3.549,3.787,10.317,3.787,10.317s6.215,6.768,9.957,4.646c3.739-2.121,21.057-21.311,21.057-21.311
					s20.283-21.264,23.694-23.739c2.815-2.046,23.19-24.691,30.24-32.564l7.056,7.68l3.61-3.316l1.743,1.896
					c0.441,3.948-2.034,6.739-2.906,7.583l-0.297,0.272l4.371,4.758l8.56-7.862l2.91-2.674l0,0l5.65-5.191l-4.37-4.762l-0.298,0.273
					l0,0l-5.353,4.916l0,0l5.353-4.916c-0.913,0.799-3.905,3.028-7.802,2.252l-1.739-1.894l3.554-3.265l-17.541-19.092l0,0
					c0,0-0.035-0.039-0.103-0.112l-1.048-1.142l-0.059,0.051C754.736,304.449,741.316,294.022,725.327,304.107z"/>
			</g>
			<g>
				<g>
					<defs>
						<path id="SVGID_5_" d="M701.444,292.142l48.581,16.889c0,0-4.205,22.637-19.512,30.91l-22.854,5.93l-8.588,10.859
							l-2.923,2.934c0,0-20.87-6.861-32.081,3.497c0,0,29.261-33.947,17.72-51.298l18.95-19.014"/>
					</defs>
					<clipPath id="SVGID_6_">
						<use xlink:href="#SVGID_5_"  overflow="visible"/>
					</clipPath>
					<g clip-path="url(#SVGID_6_)">
						<path fill="#FFFFFF" d="M705.674,321.519l-1.817-9.872l7.504-8.593c-0.996-0.229-1.961-0.137-2.931-0.045
							c-5.473,0.528-10.577,4.922-13.528,11.382c-3.101,6.638,1.956,15.251,11.311,19.552c3.904,1.736,8.215,2.622,11.918,2.264
							c4.993-0.479,8.674-2.785,10.278-6.354c0.274-0.514,0.39-1.012,0.666-1.526c2.876-7.266,1.679-14.626-2.911-18.41
							l-1.323,9.708l-5.785,5.928l-0.867,0.725"/>
					</g>
				</g>
				<path fill="#FFFFFF" d="M685.415,360.364l12.396-22.798c0,0,0.995-4.017-1.212-8.049c0,0,8.232,9.437,21.02,8.195
					c0,0-4.771,1.396-7.002,5.484l-10.201,18.205"/>
			</g>
			<g>
				<path fill="#FFFFFF" d="M505.089,334.888c0,0-22.949-37.618,28.979-80.244c0,0,31.412,48.515-16.521,90.559
					c0,0-9.662-2.325,1.016-37.037C518.562,308.166,504.327,316.407,505.089,334.888z"/>
				<path fill="#FFFFFF" d="M492.482,313.498c0,0-2.167-27.749-42.565-31.409c0,0,1.907,36.437,40.156,41.217
					c0,0,3.881-4.655-13.627-18.905C476.446,304.4,486.3,303.613,492.482,313.498z"/>
			</g>
			<g>
				<defs>
					<polygon id="SVGID_7_" points="581.735,246.395 560.401,274.888 545.735,318.395 534.247,359.739 566.733,361.406 
						580.401,352.406 628.071,357.554 602.401,250.982 					"/>
				</defs>
				<clipPath id="SVGID_8_">
					<use xlink:href="#SVGID_7_"  overflow="visible"/>
				</clipPath>
				<path clip-path="url(#SVGID_8_)" fill="#FFFFFF" d="M620.026,328.923c-0.275-4.471-1.287-9.108-4.282-12.591
					c-3.521-4.096-9.421-5.978-14.986-5.6c-4.872,0.332-9.489,2.224-13.522,4.847c0.934-9.592,7.079-18.455,15.762-22.648
					c0.686-0.331,0.971-1.15,0.641-1.837c-0.332-0.682-1.148-0.968-1.836-0.639c-3.929,1.897-7.373,4.676-10.15,8.01
					c-1-0.637-1.707-1.686-2.104-2.813c-0.452-1.271-0.582-2.63-0.771-3.966c-0.375-2.633-0.99-5.232-1.838-7.754
					c-0.771-2.293-1.79-4.603-3.611-6.192c-2.768-2.421-6.751-2.697-10.426-2.852c-0.883,2.535-0.709,5.35,0.093,7.912
					c2.405,7.678,9.622,15.179,17.456,17.201c-3.367,4.581-5.531,10.049-6,15.746c-0.005,0.056,0.016,0.104,0.02,0.16
					c-4.012-3.033-8.709-5.352-13.783-5.97c-5.537-0.673-11.529,0.894-15.264,4.797c-3.175,3.319-4.432,7.897-4.942,12.348
					c-1.106,9.655,0.872,19.617,5.612,28.256c0.684,1.249,1.426,2.472,2.296,3.612c2.087,2.734,4.905,4.971,8.122,6.433
					c5.146,2.344,11.86,2.41,16.147-1.024c0.466-0.372,1.037-0.6,1.646-0.585c0.609,0.018,1.17,0.276,1.612,0.671
					c4.101,3.656,10.806,3.947,16.071,1.88c3.289-1.291,6.227-3.373,8.451-5.993c0.93-1.093,1.736-2.275,2.485-3.485
					C618.114,348.467,620.618,338.625,620.026,328.923z"/>
			</g>
		</g>
		<path fill="#FFFFFF" d="M368.979,329.092c0,3.314-2.687,6-6,6h-56.398c-3.313,0-6-2.686-6-6l0,0c0-3.314,2.687-6,6-6h56.398
			C366.293,323.092,368.979,325.778,368.979,329.092L368.979,329.092z"/>
		<path fill="#FFFFFF" d="M400.137,382.223c0,3.314-2.687,6-6,6H268.685c-3.313,0-6-2.687-6-6l0,0c0-3.314,2.687-6,6-6h125.452
			C397.45,376.223,400.137,378.909,400.137,382.223L400.137,382.223z"/>
		<path fill="#FFFFFF" d="M399.086,487.239c0,3.313-2.687,6-6,6H239.606c-3.313,0-6-2.687-6-6l0,0c0-3.314,2.687-6,6-6h153.479
			C396.399,481.239,399.086,483.924,399.086,487.239L399.086,487.239z"/>
		<path fill="#FFFFFF" d="M400.137,435.12c0,3.313-2.687,6-6,6h-79.415c-3.313,0-6-2.687-6-6l0,0c0-3.314,2.687-6,6-6h79.415
			C397.45,429.12,400.137,431.805,400.137,435.12L400.137,435.12z"/>
	</g>
</g>
</svg>
